<svg viewBox="0 0 95 88" xmlns="http://www.w3.org/2000/svg">
  <path fill="#FFD21E" d="M47.21 0c-4.29 0-8.56.24-12.65.79C15.09 3.44 0 17.65 0 35.31c0 7.17 2.51 14.12 7.18 19.84 4.88 5.96 11.84 10.42 19.85 12.74l-1.45 5.43a4.67 4.67 0 0 0 4.52 5.87h33.8a4.67 4.67 0 0 0 4.52-5.87l-1.45-5.43c8.01-2.32 14.97-6.78 19.85-12.74C91.49 49.43 94 42.48 94 35.31c0-17.66-15.09-31.87-34.56-34.52A82.24 82.24 0 0 0 47.21 0zM26.5 24.97c4.9 0 8.87 3.97 8.87 8.87s-3.97 8.87-8.87 8.87-8.87-3.97-8.87-8.87 3.97-8.87 8.87-8.87zm41 0c4.9 0 8.87 3.97 8.87 8.87s-3.97 8.87-8.87 8.87-8.87-3.97-8.87-8.87 3.97-8.87 8.87-8.87z"/>
</svg>
